<svg xmlns="http://www.w3.org/2000/svg" viewBox="0 0 32 32" fill="none">
  <rect width="32" height="32" rx="7" fill="#1a1814"/>
  <!-- Flame shape: white -->
  <path
    d="M16 4
       C16 4 20 9 19.5 13
       C21.5 11 22 8 22 8
       C22 8 26 12.5 24 18
       C22.5 22 19.5 24.5 16 25
       C12.5 24.5 9.5 22 8 18
       C6 12.5 10 8 10 8
       C10 8 10.5 11 12.5 13
       C12 9 16 4 16 4Z"
    fill="white"
  />
  <!-- Inner flame highlight -->
  <path
    d="M16 10
       C16 10 18 13.5 17.5 16
       C19 14.5 19.5 12.5 19.5 12.5
       C19.5 12.5 21 15 20 18
       C19 20.5 17.5 21.5 16 22
       C14.5 21.5 13 20.5 12 18
       C11 15 12.5 12.5 12.5 12.5
       C12.5 12.5 13 14.5 14.5 16
       C14 13.5 16 10 16 10Z"
    fill="#f7f4ee"
    opacity="0.5"
  />
</svg>
